<?xml version="1.0" standalone="no"?>
<!DOCTYPE svg PUBLIC "-//W3C//DTD SVG 20010904//EN"
 "http://www.w3.org/TR/2001/REC-SVG-20010904/DTD/svg10.dtd">
<svg version="1.0" xmlns="http://www.w3.org/2000/svg"
 width="700.000000pt" height="700.000000pt" viewBox="0 0 700.000000 700.000000"
 preserveAspectRatio="xMidYMid meet">
<metadata>
Created by potrace 1.14, written by Peter Selinger 2001-2017
</metadata>
<g transform="translate(0.000000,700.000000) scale(0.100000,-0.100000)"
fill="#000000" stroke="none">
<path d="M3800 6993 c-332 -35 -577 -85 -868 -175 -105 -33 -132 -45 -130 -58
8 -42 364 -890 375 -890 6 0 65 15 130 34 153 44 344 82 508 101 71 8 136 15
142 15 10 0 13 103 13 490 l0 490 -67 -2 c-38 0 -84 -3 -103 -5z"/>
<path d="M4370 6510 c0 -385 3 -490 13 -490 6 0 73 -7 147 -16 168 -19 336
-53 503 -100 72 -21 132 -33 137 -28 9 10 370 880 370 893 0 11 -212 76 -395
121 -231 57 -573 110 -717 110 l-58 0 0 -490z"/>
<path d="M2305 6559 c-201 -102 -413 -236 -605 -382 -110 -83 -270 -218 -270
-227 0 -3 155 -160 344 -349 l344 -344 25 19 c13 10 66 52 118 93 118 93 294
209 431 284 l107 58 -33 77 c-18 42 -102 245 -187 450 -84 204 -158 372 -164
372 -5 -1 -55 -24 -110 -51z"/>
<path d="M5742 6198 c-94 -227 -178 -429 -186 -450 l-15 -36 112 -62 c137 -75
333 -206 446 -297 46 -37 91 -73 100 -80 14 -10 68 40 365 333 l349 345 -53
47 c-176 154 -444 347 -640 459 -115 66 -285 153 -298 153 -5 0 -86 -186 -180
-412z"/>
<path d="M1089 5607 c-154 -178 -308 -390 -429 -593 -87 -146 -184 -333 -176
-341 6 -6 889 -373 898 -373 3 0 32 48 63 108 67 127 197 324 292 441 37 46
75 94 83 107 15 23 9 29 -325 364 -187 187 -344 340 -350 340 -5 0 -30 -24
-56 -53z"/>
<path d="M3844 5604 c-418 -50 -819 -198 -1164 -429 -170 -113 -273 -198 -416
-340 -424 -421 -687 -953 -771 -1555 -21 -154 -24 -517 -5 -670 39 -316 128
-612 268 -893 63 -127 164 -297 176 -297 4 0 8 26 8 58 0 128 50 1477 60 1612
76 1040 887 1881 1929 2001 152 17 476 7 616 -20 346 -65 655 -198 918 -395
49 -36 92 -66 95 -66 4 0 89 82 189 182 l182 181 -72 60 c-115 94 -320 226
-473 303 -290 146 -596 235 -939 274 -124 14 -467 11 -601 -6z"/>
<path d="M3930 4685 c-277 -38 -559 -149 -790 -313 -111 -78 -312 -274 -392
-382 -125 -169 -227 -374 -283 -565 -60 -206 -62 -239 -101 -1303 -20 -546
-34 -996 -31 -998 2 -3 287 47 632 111 346 64 633 114 639 111 6 -2 353 -306
770 -675 l760 -671 839 0 839 0 -6 27 c-6 25 -600 2195 -611 2233 -4 12 -34
19 -127 29 -379 39 -821 161 -1191 329 l-68 31 90 180 91 180 67 -31 c179 -81
429 -166 643 -217 142 -35 361 -74 368 -66 10 10 -201 761 -245 875 -236 603
-769 1023 -1416 1115 -124 18 -348 18 -477 0z"/>
<path d="M276 4158 c-85 -266 -151 -601 -176 -883 -5 -66 -10 -126 -10 -132 0
-10 106 -13 495 -13 l495 0 0 48 c0 122 63 460 121 646 17 54 29 99 27 101 -2
2 -856 357 -895 372 -8 3 -28 -45 -57 -139z"/>
<path d="M95 2648 c24 -283 56 -485 110 -703 51 -205 114 -398 128 -392 367
152 893 370 895 372 2 1 -13 54 -32 116 -56 185 -116 517 -116 640 l0 39 -496
0 -495 0 6 -72z"/>
<path d="M928 1366 c-241 -100 -440 -185 -443 -188 -3 -3 15 -52 40 -109 117
-262 165 -406 190 -574 17 -113 19 -284 5 -394 -6 -41 -9 -76 -7 -77 1 -1 47
6 102 16 551 100 920 343 1056 694 l30 79 -39 41 c-141 147 -337 428 -437 627
-20 38 -41 69 -48 68 -6 -1 -209 -83 -449 -183z"/>
</g>
</svg>
